<!--?xml version="1.0" standalone="no"?-->
              <svg id="sw-js-blob-svg" viewBox="0 0 100 100" xmlns="http://www.w3.org/2000/svg" version="1.1">
                    <defs> 
                       <linearGradient id="sw-gradient" x1="0" x2="1" y1="1" y2="0">
                            <stop id="stop1" stop-color="rgba(255, 255, 255, 1)" offset="0%"></stop>
                            <stop id="stop2" stop-color="rgba(255, 255, 255, 1)" offset="100%"></stop>
                        </linearGradient>
                    </defs>
                <path fill="url(#sw-gradient)" d="M21.4,-35.8C28,-33.2,34,-28.1,38.2,-21.7C42.5,-15.4,45.1,-7.7,44.8,-0.2C44.5,7.3,41.3,14.6,36.5,20.1C31.7,25.6,25.3,29.2,18.9,33.4C12.6,37.6,6.3,42.5,-1,44.2C-8.3,45.9,-16.6,44.4,-23.6,40.6C-30.6,36.8,-36.4,30.5,-39.3,23.4C-42.3,16.2,-42.5,8.1,-42.5,0C-42.4,-8,-42.1,-16.1,-38.3,-21.8C-34.4,-27.4,-27,-30.7,-20.1,-33.2C-13.1,-35.6,-6.5,-37.3,0.4,-38C7.4,-38.7,14.7,-38.4,21.4,-35.8Z" width="100%" height="100%" transform="translate(50 50)" stroke-width="0" style="transition: all 0.3s ease 0s;" stroke="rgba(248, 117, 55, 1)"></path>
              </svg>