<!--?xml version="1.0" standalone="no"?-->
              <svg id="sw-js-blob-svg" viewBox="0 0 100 100" xmlns="http://www.w3.org/2000/svg" version="1.1">
                    <defs> 
                        <linearGradient id="sw-gradient" x1="0" x2="1" y1="1" y2="0">
                            <stop id="stop1" stop-color="rgba(255, 255, 255, 1)" offset="0%"></stop>
                            <stop id="stop2" stop-color="rgba(255, 255, 255, 1)" offset="100%"></stop>
                        </linearGradient>
                    </defs>
                <path fill="url(#sw-gradient)" d="M18.6,-32.5C24.1,-29.1,28.4,-24,31.5,-18.3C34.5,-12.6,36.2,-6.3,36.7,0.3C37.1,6.8,36.2,13.6,33,19.1C29.9,24.5,24.4,28.6,18.5,33.4C12.6,38.2,6.3,43.6,-0.5,44.4C-7.2,45.2,-14.4,41.4,-21.3,37.1C-28.2,32.9,-34.7,28.4,-39.3,22.1C-43.9,15.9,-46.6,7.9,-45.7,0.5C-44.8,-6.9,-40.3,-13.8,-35.2,-19.2C-30.1,-24.7,-24.5,-28.7,-18.6,-31.8C-12.6,-34.9,-6.3,-36.9,0.1,-37.2C6.6,-37.4,13.2,-35.8,18.6,-32.5Z" width="100%" height="100%" transform="translate(50 50)" stroke-width="0" style="transition: all 0.3s ease 0s;" stroke="rgba(248, 117, 55, 1)"></path>
              </svg>