<!--?xml version="1.0" standalone="no"?-->
              <svg id="sw-js-blob-svg" viewBox="0 0 100 100" xmlns="http://www.w3.org/2000/svg" version="1.1">
                    <defs> 
                        <linearGradient id="sw-gradient" x1="0" x2="1" y1="1" y2="0">
                            <stop id="stop1" stop-color="rgba(255, 255, 255, 1)" offset="0%"></stop>
                            <stop id="stop2" stop-color="rgba(255, 255, 255, 1)" offset="100%"></stop>
                        </linearGradient>
                    </defs>
                <path fill="url(#sw-gradient)" d="M19.4,-35C25,-30.4,29.2,-24.8,32.1,-18.8C35,-12.8,36.7,-6.4,38.1,0.8C39.5,8.1,40.7,16.1,38,22.5C35.3,28.8,28.7,33.5,21.7,36.5C14.7,39.5,7.3,40.7,0.5,39.8C-6.3,38.9,-12.6,35.8,-18.7,32.4C-24.9,28.9,-30.8,25.1,-35.3,19.6C-39.8,14.2,-42.8,7.1,-42.2,0.3C-41.7,-6.4,-37.6,-12.9,-34,-19.8C-30.3,-26.8,-27.2,-34.2,-21.6,-38.8C-16,-43.3,-8,-44.9,-0.5,-44C6.9,-43,13.9,-39.5,19.4,-35Z" width="100%" height="100%" transform="translate(50 50)" stroke-width="0" style="transition: all 0.3s ease 0s;" stroke="rgba(248, 117, 55, 1)"></path>
              </svg>