<!--?xml version="1.0" standalone="no"?-->
              <svg id="sw-js-blob-svg" viewBox="0 0 100 100" xmlns="http://www.w3.org/2000/svg" version="1.1">
                    <defs> 
                       <linearGradient id="sw-gradient" x1="0" x2="1" y1="1" y2="0">
                            <stop id="stop1" stop-color="rgba(255, 255, 255, 1)" offset="0%"></stop>
                            <stop id="stop2" stop-color="rgba(255, 255, 255, 1)" offset="100%"></stop>
                        </linearGradient>
                    </defs>
                <path fill="url(#sw-gradient)" d="M20.3,-34.4C26.8,-31.4,32.8,-26.9,36.6,-20.9C40.4,-15,41.9,-7.5,41,-0.5C40.1,6.4,36.8,12.9,32.7,18.3C28.6,23.8,23.8,28.3,18.2,33.4C12.6,38.4,6.3,44,-0.5,44.9C-7.3,45.8,-14.7,42,-20.5,37.1C-26.4,32.2,-30.8,26.2,-35.2,19.9C-39.6,13.5,-44.1,6.8,-45.3,-0.7C-46.5,-8.2,-44.5,-16.3,-40.1,-22.7C-35.7,-29.2,-29,-33.9,-21.9,-36.5C-14.8,-39.1,-7.4,-39.5,-0.3,-39.1C6.9,-38.7,13.8,-37.3,20.3,-34.4Z" width="100%" height="100%" transform="translate(50 50)" stroke-width="0" style="transition: all 0.3s ease 0s;" stroke="rgba(248, 117, 55, 1)"></path>
              </svg>