<!--?xml version="1.0" standalone="no"?-->
              <svg id="sw-js-blob-svg" viewBox="0 0 100 100" xmlns="http://www.w3.org/2000/svg" version="1.1">
                    <defs> 
                        <linearGradient id="sw-gradient" x1="0" x2="1" y1="1" y2="0">
                            <stop id="stop1" stop-color="rgba(255, 255, 255, 1)" offset="0%"></stop>
                            <stop id="stop2" stop-color="rgba(255, 255, 255, 1)" offset="100%"></stop>
                        </linearGradient>
                    </defs>
                <path fill="url(#sw-gradient)" d="M22.4,-39.3C29.2,-35,34.7,-29.1,37.5,-22.3C40.3,-15.5,40.3,-7.8,39.5,-0.4C38.8,6.9,37.3,13.8,33.9,19.5C30.4,25.1,25,29.6,19.1,33.5C13.1,37.4,6.5,40.8,-0.7,42C-7.9,43.1,-15.8,42,-21.8,38.1C-27.8,34.2,-31.9,27.5,-35.7,20.7C-39.5,13.9,-43.1,6.9,-43.2,-0.1C-43.4,-7.1,-40.2,-14.2,-36.4,-21.1C-32.6,-28,-28.2,-34.6,-22,-39.3C-15.9,-43.9,-7.9,-46.6,0,-46.6C7.9,-46.5,15.7,-43.7,22.4,-39.3Z" width="100%" height="100%" transform="translate(50 50)" stroke-width="0" style="transition: all 0.3s ease 0s;" stroke="rgba(248, 117, 55, 1)"></path>
              </svg>