<!--?xml version="1.0" standalone="no"?-->
              <svg id="sw-js-blob-svg" viewBox="0 0 100 100" xmlns="http://www.w3.org/2000/svg" version="1.1">
                    <defs> 
                        <linearGradient id="sw-gradient" x1="0" x2="1" y1="1" y2="0">
                            <stop id="stop1" stop-color="rgba(255, 255, 255, 1)" offset="0%"></stop>
                            <stop id="stop2" stop-color="rgba(255, 255, 255, 1)" offset="100%"></stop>
                        </linearGradient>
                    </defs>
                <path fill="url(#sw-gradient)" d="M19.9,-34.1C25.7,-31.1,30.3,-25.6,34.5,-19.5C38.7,-13.4,42.4,-6.7,43.7,0.7C45,8.2,43.8,16.4,40.1,23.3C36.4,30.3,30.2,35.9,23.1,38.9C16,42,8,42.5,0,42.4C-7.9,42.3,-15.8,41.7,-22.2,38.2C-28.6,34.8,-33.5,28.4,-36.7,21.6C-39.9,14.8,-41.5,7.4,-42.3,-0.5C-43.2,-8.3,-43.2,-16.7,-39.7,-22.9C-36.1,-29.2,-28.9,-33.5,-21.7,-35.7C-14.5,-37.9,-7.3,-38,-0.1,-37.8C7,-37.6,14.1,-37.1,19.9,-34.1Z" width="100%" height="100%" transform="translate(50 50)" stroke-width="0" style="transition: all 0.3s ease 0s;" stroke="rgba(248, 117, 55, 1)"></path>
              </svg>